<svg xmlns="http://www.w3.org/2000/svg" viewBox="0 0 1024 1024">
  <rect
    x="0"
    y="0"
    width="1024"
    height="1024"
    rx="170"
    ry="170"
    fill="#2F2F31"
  />

  <!-- M -->
  <path
    fill="#FFFFFF"
    d="M151.9,316.8
       L151.9,695.7
       L235.2,695.7
       L236.0,463.0
       L334.0,695.7
       L381.3,695.7
       L479.3,463.0
       L480.2,695.7
       L562.6,695.7
       L562.6,316.0
       L455.7,317.7
       L357.7,554.5
       L259.7,316.8
       Z"/>

  <!-- S -->
  <path
    fill="#FFFFFF"
    d="M720.2,313.6
       L663.1,333.2
       L630.4,361.7
       L610.8,404.2
       L611.6,454.8
       L626.3,485.1
       L658.2,512.0
       L799.4,560.2
       L813.3,579.0
       L811.7,601.8
       L785.6,625.5
       L752.1,631.2
       L724.3,628.0
       L701.4,617.3
       L685.1,596.9
       L681.0,575.7
       L599.4,575.7
       L601.0,602.6
       L619.0,645.9
       L659.8,681.9
       L716.1,699.8
       L792.1,699.0
       L843.5,681.0
       L881.1,645.9
       L896.6,602.6
       L890.9,548.7
       L876.2,524.2
       L845.2,498.9
       L708.0,451.6
       L694.1,434.4
       L694.1,413.2
       L710.4,393.6
       L747.2,383.8
       L791.3,394.4
       L805.2,409.1
       L810.1,427.1
       L891.7,427.1
       L890.1,406.7
       L872.9,365.0
       L837.0,335.7
       L788.9,319.3
       Z"/>
</svg>
